<svg xmlns="http://www.w3.org/2000/svg" viewBox="0 0 1920 1080"><defs><style>.cls-1{fill:#3c2482;}.cls-2{fill:#482ea6;}.cls-3{fill:#271959;}.cls-4{fill:#331a8f;}.cls-5{fill:#fdc032;}.cls-6{fill:#faae33;}.cls-7{fill:#210e69;}.cls-8{fill:#21066b;}.cls-9{fill:#21076b;}.cls-10{fill:#fefefe;}.cls-11{fill:#fdfdfe;}</style></defs><g id="Camada_1" data-name="Camada 1"><path class="cls-1" d="M39.16,448.34q0-48.27-.07-96.54c0-2.49.66-3.43,3.08-3.94,6.13-1.27,6.11-1.4,9.45,4q61.76,99.46,123.55,198.93c1.25,2,1.47,3.16-.54,4.93A23.9,23.9,0,0,0,167,569.58c-.36,2-1.05,2.73-3.21,2.72q-49.07-.12-98.12,0c-1.7,0-2.51-.28-2.94-2.22-2.54-11.49-9.54-18.81-21.1-21.37-2.52-.56-2.45-2-2.45-3.81Q39.17,496.61,39.16,448.34Z"/><path class="cls-1" d="M39.17,701.21q0-48-.06-95.92c0-2.5.52-3.59,3.18-4.23,10.85-2.59,17.6-9.55,20.21-20.36.51-2.12,1.2-2.86,3.49-2.85q48.75.12,97.5,0c2.21,0,3.15.55,3.55,2.79a23.93,23.93,0,0,0,8,14c1.65,1.43,1.34,2.38.38,3.92q-17.94,28.73-35.79,57.52-44.76,72-89.49,144.13c-1.45,2.34-2.51,3.47-5.59,2.23-5.27-2.13-5.39-1.84-5.39-7.53Z"/><path class="cls-2" d="M190.56,448.3q0,48,.06,95.93c0,2.75-.45,4-3.51,4.53-5.72.93-5.63,1.15-8.64-3.71q-26.57-42.88-53.18-85.74-35.36-57-70.78-113.9c-1.2-1.92-1.12-3,.55-4.44a22.61,22.61,0,0,0,7.51-13.58c.42-2.63,1.88-2.79,4-2.78q31.67.06,63.32,0c11.19,0,22.38.05,33.56,0,2.2,0,3.2.4,3.79,2.89,2.6,10.92,9.42,17.95,20.45,20.47,2.37.55,2.94,1.48,2.94,3.77Q190.51,400,190.56,448.3Z"/><path class="cls-3" d="M190.56,701.61q0,48.12.05,96.23c0,2.33-.39,3.3-3,3.91-10.81,2.51-17.74,9.34-20.43,20.15-.59,2.37-1.4,3.15-3.91,3.14q-48.42-.15-96.85,0c-2.43,0-3.5-.53-4-3a23.64,23.64,0,0,0-7.68-13.52c-1.67-1.48-1.48-2.5-.43-4.19q42.42-68.09,84.74-136.24,20.55-33.06,41.05-66.15c1.22-2,2.27-2.75,4.43-1.54,1.82,1,4.82.23,5.72,2s.34,4.32.34,6.53q0,46.38,0,92.74Z"/><path class="cls-2" d="M269,510.69q0-49.05-.05-98.12c0-2.39.51-3.44,3.09-4a24.26,24.26,0,0,0,16.31-11c1.26-2,2.36-2.14,4.33-1.34q46.29,18.78,92.62,37.43c1.76.71,2.39,1.59,2.06,3.55-1.51,8.88.71,16.75,6.87,23.36,1.31,1.39.87,2.12-.05,3.39q-29.06,40.06-58,80.19-25.38,35.12-50.7,70.27c-1.68,2.34-2.94,3-5.43,1.25a16.74,16.74,0,0,0-7.93-3c-2.63-.27-3.14-1.46-3.14-3.89Q269,559.76,269,510.69Z"/><path class="cls-3" d="M434.47,825c-22.47,0-45-.05-67.42.06-2.5,0-3.42-.71-3.92-3.13a24.5,24.5,0,0,0-9.65-15.13c-1.55-1.15-1.8-2.13-1.12-3.94q25.2-67.1,50.25-134.23c.62-1.64,1.27-2.37,3.18-2a17.31,17.31,0,0,0,8.74-.77c2.28-.75,3.32,0,4.55,1.81q31.86,46.85,63.84,93.6c9.94,14.55,19.85,29.11,29.86,43.61,1.3,1.88,1.44,3-.35,4.73a23,23,0,0,0-6.68,12.69c-.41,2.26-1.37,2.74-3.53,2.74C479.64,824.94,457.05,825,434.47,825Z"/><path class="cls-1" d="M337.2,643.22c-13.6,0-27.21-.07-40.81.06-2.52,0-3.17-.64-3-3.14A24.08,24.08,0,0,0,288.8,624c-1.34-1.85-1.06-3,.16-4.64Q321,575.23,353,531q22.82-31.53,45.6-63.07c1.31-1.82,2.41-2.74,4.52-1.27a9.61,9.61,0,0,0,2.66,1c4.56,1.44,4.47,1.43,4.33,6.33-.59,19.8-1.09,39.61-1.68,59.41-.77,25.7-1.62,51.4-2.34,77.1-.06,2-.76,2.66-2.67,3a26.19,26.19,0,0,0-22.12,26.12c0,3.2-.95,3.75-3.87,3.72C364,643.13,350.6,643.22,337.2,643.22Z"/><path class="cls-3" d="M265.14,825c-13.93,0-27.85-.07-41.77,0-2.41,0-3.5-.52-4-3A25.06,25.06,0,0,0,208,805.52c-1.7-1.1-1.91-2-1.19-3.79q26.9-66.91,53.64-133.88c.72-1.82,1.66-2.51,3.51-2.11a3.55,3.55,0,0,0,1.57.15c4.62-1.2,6.12,1.39,7.68,5.26q26.1,64.85,52.58,129.54c.77,1.88.47,2.63-1.33,3.57A25.26,25.26,0,0,0,310.91,822c-.54,2.51-1.59,3.06-4,3C293,824.91,279.06,825,265.14,825Z"/><path class="cls-3" d="M337.31,649.08c14.14,0,28.28,0,42.42,0,2,0,3.16.43,4.08,2.46a24.12,24.12,0,0,0,11.64,12c2.19,1.06,2.24,2.08,1.47,4.12Q372,733.85,347.31,800.1c-.75,2-1.56,2.52-3.63,1.87a17.66,17.66,0,0,0-9.05-.77c-2.15.47-2.7-.5-3.36-2.15q-9.18-22.74-18.45-45.44-17.56-43.23-35.19-86.45c-1-2.37-.75-3.37,1.62-4.49a23.13,23.13,0,0,0,11-11c1.09-2.24,2.43-2.66,4.66-2.64C309,649.12,323.17,649.08,337.31,649.08Z"/><path class="cls-4" d="M529.09,733.91c0,21.31,0,42.63.06,64,0,2.44-.51,3.77-3.15,3.87a6.64,6.64,0,0,0-3,.9c-2.87,1.72-4.35.77-6.18-1.92Q470.87,733,424.63,665.51c-1.51-2.21-1.86-3.44.69-5.18a20.11,20.11,0,0,0,6.91-8.9,3.3,3.3,0,0,1,3.51-2.37q34.2.11,68.39,0a3.4,3.4,0,0,1,3.57,2.29,25.65,25.65,0,0,0,18.64,14.75c2.32.49,2.8,1.4,2.79,3.54Q529,701.77,529.09,733.91Z"/><path class="cls-4" d="M196.49,701.17q0-48.1-.06-96.22c0-2.48.65-3.53,3.17-3.91a20.06,20.06,0,0,0,8.89-3.94c1.45-1.08,2.37-1.11,3.73.24q14.13,14.07,28.44,27.94a3.25,3.25,0,0,1,.9,4.08c-4.83,13.25,0,26.33,12.29,33.34,1.71,1,1.82,1.75,1.14,3.44q-26.72,66.5-53.31,133.05c-.64,1.62-1,3-3.48,2.42s-2-2.08-2-3.57q0-48.43,0-96.87Z"/><path class="cls-5" d="M114.6,143a9.45,9.45,0,0,1-3.14,7q-16.17,16.26-32.27,32.59c-6.15,6.21-6.19,12.94,0,19.09,10.83,10.79,21.71,21.53,32.51,32.35,4.47,4.48,3.79,10.86-1.38,13.62a8.07,8.07,0,0,1-9.2-.83,31.73,31.73,0,0,1-3.23-3L53.8,199.76c-5.28-5.28-5.32-9.55-.1-15q23-23.92,46.08-47.82c2.58-2.67,5.53-3.77,9.14-2.34A9.26,9.26,0,0,1,114.6,143Z"/><path class="cls-6" d="M124.25,186.27a7.16,7.16,0,0,1,5.38,2.38q23.77,24.54,47.54,49.09c4,4.1,3.71,9.08-.41,13.21q-23.25,23.3-46.55,46.55c-3.82,3.82-9,4.17-12.42.93-3.69-3.47-3.67-8.47.43-12.6,8.4-8.46,17-16.74,25.45-25.11,2.26-2.22,4.48-4.47,6.72-6.71,6.49-6.51,6.52-13.14.1-19.61l-32.3-32.59c-3-3-3.92-6.41-2.21-10.39A8.45,8.45,0,0,1,124.25,186.27Z"/><path class="cls-7" d="M193.31,806.9a21.05,21.05,0,1,1-21.1,20.9A21.4,21.4,0,0,1,193.31,806.9Z"/><path class="cls-7" d="M336.89,806.9A21.05,21.05,0,1,1,316,828,21.35,21.35,0,0,1,336.89,806.9Z"/><path class="cls-7" d="M266.07,361.38c11.4,0,21.15,9.7,21.07,20.92a21.58,21.58,0,0,1-20.93,21.19c-11.33.14-21.28-9.81-21.18-21.21A21.13,21.13,0,0,1,266.07,361.38Z"/><path class="cls-7" d="M407.88,618.82a21,21,0,1,1,0,42.09,21,21,0,0,1,0-42.09Z"/><path class="cls-7" d="M57.4,321.65a21.48,21.48,0,0,1-21,21.11A21.46,21.46,0,0,1,15.2,321.61c.05-11.27,9.67-20.84,21.12-21C47.41,300.44,57.36,310.37,57.4,321.65Z"/><path class="cls-7" d="M214.32,575a21.06,21.06,0,1,1-20.93-21.11A21.38,21.38,0,0,1,214.32,575Z"/><path class="cls-7" d="M36,806.91c11.15-.3,21.08,9.31,21.36,20.68s-9.17,21-20.65,21.4c-11.29.37-21.32-9.33-21.54-20.85C15,817,24.55,807.21,36,806.91Z"/><path class="cls-7" d="M214.6,321.67a21,21,0,1,1-21-21.07C204.8,300.6,214.6,310.42,214.6,321.67Z"/><path class="cls-7" d="M57.4,575A21.41,21.41,0,0,1,36,596a21.52,21.52,0,0,1-20.78-21c-.1-11.33,9.93-21.3,21.26-21.13S57.47,563.75,57.4,575Z"/><path class="cls-7" d="M553,827.49c.42,11.19-9.08,21.16-20.49,21.5s-21.12-9-21.6-20.43c-.45-11.17,9.08-21.3,20.37-21.65A21.26,21.26,0,0,1,553,827.49Z"/><path class="cls-7" d="M392.85,442.09a21.1,21.1,0,0,1,21.08-21.18c11.28,0,20.94,9.82,20.9,21.15a21.33,21.33,0,0,1-21,21A21,21,0,0,1,392.85,442.09Z"/><path class="cls-7" d="M553,639.44c.39,11.16-9.16,21.14-20.55,21.47s-21.12-9.06-21.55-20.49c-.42-11.19,9-21.19,20.42-21.6S552.58,627.74,553,639.44Z"/><path class="cls-7" d="M266.38,618.14a21,21,0,1,1,.25,42,21.38,21.38,0,0,1-21.1-20.92A21.1,21.1,0,0,1,266.38,618.14Z"/></g><g id="Camada_2" data-name="Camada 2"><path class="cls-8" d="M1887.72,666.89c-14-.06-59.5-.47-59.5-.47s-4.43.71-4.39,4.15q.26,21.39,0,42.8c0,3.1,1,4.07,4.05,4,11.21-.1,33.82-.13,43-.14a4,4,0,0,1,4,4V731a4,4,0,0,1-4,4c-7.28,0-32.95-.1-42.93-.13a4,4,0,0,0-4,4l0,60a4,4,0,0,0,4,4l59.74-.13a4,4,0,0,1,4,4V816a4,4,0,0,1-4,4h-77.48a4,4,0,0,1-4-4l0-163.08a4,4,0,0,1,4-4c14.33,0,63.18-.08,77.48,0a4,4,0,0,1,4,4v10A4,4,0,0,1,1887.72,666.89Z"/><path class="cls-8" d="M1059.68,460.08q0-66.42-.08-132.83c0-3.91.8-5.3,5.06-5.26,25.9.21,51.8.32,77.69.05,29.15-.3,53.31,22.69,55.37,48.08a290.48,290.48,0,0,1,0,42.75,39.36,39.36,0,0,1-6.46,19.06c-1.84,2.79-1.58,3.81,1.55,5.39,21.11,10.71,32.68,27.55,32.58,51.73-.09,18.68,0,37.36,0,56A50.93,50.93,0,0,1,1224,556.9c-5.79,24.54-28,41.9-54.35,42-35.31.18-70.62,0-105.93.14-4,0-4.1-1.88-4.1-4.84Q1059.72,527.16,1059.68,460.08Z"/><path class="cls-8" d="M1280.54,460.34c0-44.28.08-88.56-.11-132.84,0-4.65,1.36-5.55,5.71-5.51,25.16.21,50.33.1,75.49.11,33.79,0,57.51,23.71,57.45,57.54,0,10.44.43,20.88-.32,31.31a49.6,49.6,0,0,1-15.61,33.14c-2.09,2-2.45,3.08-.23,5.15,11.47,10.7,16.16,24.27,16.18,39.64,0,35-.06,70,.11,105,0,4.12-1.15,5.36-5.2,5.15a181.79,181.79,0,0,0-18.53,0c-3.83.19-4.64-1.24-4.63-4.79.12-34.72.07-69.44.07-104.15,0-17.39-11-29.09-28.27-29.43-16.92-.33-33.85,0-50.77-.15-3.1,0-3.63,1.29-3.59,4,.13,7.94,0,15.88,0,23.83V592.51c0,7.49.48,6.44-6.26,6.47-5.59,0-11.2-.27-16.77.1-4.07.26-4.85-1.26-4.84-5Q1280.65,527.21,1280.54,460.34Z"/><path class="cls-8" d="M866.23,484c0-35.31.52-70.63-.17-105.92-.55-27.6,22.48-55.58,53.79-55.91,11.47-.11,23-.43,34.41.36a54.08,54.08,0,0,1,50.43,53.93c.2,72.82.06,145.64.12,218.46,0,2.93-.66,4.26-3.91,4.15-6.61-.21-13.25-.3-19.86,0-4,.19-4.51-1.56-4.5-4.93.1-33.25.06-66.5.06-99.74,0-10-.08-20,.06-30,0-2.87-.86-3.85-3.78-3.84-25,.09-50,.13-75,0-3.81,0-3.82,1.83-3.82,4.62q.08,64,0,128c0,5.85,0,5.85-6,5.84s-11.79-.25-17.65.1c-4,.24-4.19-1.71-4.19-4.77q.11-46.78.05-93.56Z"/><path class="cls-8" d="M1889.14,484c0,36.63-.05,73.26.08,109.89,0,4-.91,5.5-5.13,5.22a142.38,142.38,0,0,0-17.65,0c-4.16.25-5.49-.91-5.47-5.27.18-37.21.1-74.43.1-111.65,0-6-.1-12.07,0-18.1.07-2.74-1-3.5-3.61-3.49-25.16.07-50.32.11-75.48,0-4.11,0-3.53,2.41-3.53,4.9V593c0,6,0,6-5.89,6s-11.79-.21-17.66.08c-3.64.19-4.47-1.2-4.42-4.57.16-12.65.06-25.31.06-38V378.67c0-31.19,21.58-54.59,52.6-56.36a284.2,284.2,0,0,1,34.41.12c29.78,1.94,51.46,25.36,51.52,55.18C1889.2,413.06,1889.14,448.52,1889.14,484Z"/><path class="cls-8" d="M1557,460q0-40.59,0-81.18c0-32.79,23.76-56.65,56.46-56.69,10.73,0,21.51-.34,32.19.44,26.53,1.93,47.75,23.66,49.72,50,.29,3.89-.5,5.61-4.89,5.35-6.45-.39-12.94-.18-19.41-.07-2.38.05-3.27-.74-3.64-3.18-2.31-15.12-13.35-24.52-28.6-24.55-8.82,0-17.65-.07-26.48,0-15.8.13-27.28,11.59-27.29,27.38q-.06,83,0,165.9c0,16.93,10.69,27.51,27.68,27.54,25.89,0,51.79.12,77.67-.09,4.24,0,5.24,1.32,5.06,5.26-.29,6.45-.13,12.93,0,19.4,0,2.31-.52,3.53-3.17,3.51-28.09-.16-56.22.65-84.27-.58-29.15-1.28-50.81-25.37-51-54.64C1556.86,515.87,1557,487.92,1557,460Z"/><path class="cls-8" d="M672.47,327.27c0-3.91.83-5.29,5.08-5.27q64.22.24,128.43,0c4.12,0,5.37,1.15,5.15,5.21-.32,6.16-.28,12.36,0,18.52.16,3.57-1.06,4.48-4.52,4.46-33.69-.12-67.38,0-101.07-.18-4.29,0-5.07,1.33-5,5.22q.24,36.39,0,72.8c0,4,1.12,4.91,5,4.88,24.42-.17,48.85,0,73.27-.18,3.89,0,5.16,1.06,5,5-.32,6.16-.29,12.36,0,18.53.16,3.57-1.11,4.47-4.54,4.45-24.57-.13-49.14,0-73.7-.16-3.9,0-4.95,1-4.94,4.89.14,42.51.09,85,.09,127.52,0,6.06,0,6.05-6.26,6.05-5.59,0-11.2-.29-16.76.1-4.3.3-5.09-1.4-5.08-5.29C672.59,549.37,672.59,371.69,672.47,327.27Z"/><path class="cls-8" d="M1450.6,648.88H1460a4,4,0,0,1,4,4c0,18.36,0,95.26,0,130.86,0,4.51.34,8.84,3.26,12.52a17.24,17.24,0,0,0,19.11,5.45,16.9,16.9,0,0,0,11.38-15.79c0-17.43,0-52.35,0-64.14a4,4,0,0,1,4-4h9.54a4,4,0,0,1,4,4c0,11.2,0,43.12,0,59.08,0,1.91,0,3.82.19,5.73.68,9.91,7.67,16.36,17.34,16.07a17,17,0,0,0,16.37-17.32c0-43.67-.09-136.44-.09-136.44h17.67s.07,95.48,0,137.1c0,14.55-7.18,25.08-20.16,31-13.3,6.1-25.88,3.68-36.93-5.83-2.1-1.81-3.09-2-5.31,0-11.1,9.87-23.92,11.82-37.34,5.94s-20.43-16.33-20.42-31.2c0-19.21,0-112.5,0-133A4,4,0,0,1,1450.6,648.88Z"/><path class="cls-8" d="M1501.92,460.51c0,44.41-.06,88.82.09,133.23,0,4.33-1.22,5.6-5.45,5.33a117.41,117.41,0,0,0-17.19,0c-4.79.4-5.5-1.48-5.49-5.72.14-43.09.09-86.18.09-129.26,0-45.59.06-91.18-.1-136.76,0-4.3,1.18-5.63,5.43-5.36a143,143,0,0,0,17.2,0c4.12-.24,5.54.85,5.52,5.27C1501.85,371.69,1501.92,416.1,1501.92,460.51Z"/><path class="cls-8" d="M1697.89,734.45c0-26.76.08-53.51-.09-80.27,0-4,1-5.3,5.18-5.22,16.6.32,33.24-.26,49.82.53s30,15.59,30.43,32.19c.16,6.61.14,13.23,0,19.84a32.06,32.06,0,0,1-8.83,22c-1.87,2-1.78,3.11,0,5a31.6,31.6,0,0,1,8.83,22.4c0,17.7,0,53.21.06,65.12a4,4,0,0,1-4,4h-9.6a4,4,0,0,1-4-4c0-11.61.09-45.53.08-62.18,0-12.45-7.13-19.57-19.6-19.62-.7,0-27.5-.14-28.43,0-2.48.27-3.37,1.51-3.34,5,.19,21.08.2,63.67.19,76.87a4,4,0,0,1-4,4h-8.73a4,4,0,0,1-4-4Z"/><path class="cls-8" d="M1589.2,749.61c0-20.88.53-41.78-.13-62.65-.77-24.56,18.56-37.54,37.4-37.44,4.92-.1,8.82,0,13.24.05,20.55,0,35.25,14.07,35.37,34.75.23,38.5.16,113.64.14,131.75a4,4,0,0,1-4,4h-9.53a4,4,0,0,1-4-4c0-13.47-.09-57.46,0-76.28,0-3.36-.6-4.82-3.71-5-1.17-.08-41.93,0-42.92,0-3.75,0-4.54,1.37-4.51,5,.13,21.06.17,63.17.18,76.28a4,4,0,0,1-4,4h-9.64a4,4,0,0,1-4-4C1589.16,804,1589.2,767.84,1589.2,749.61Z"/><path class="cls-9" d="M669.38,734.59c0-26.77.07-53.53-.08-80.29,0-3.93.8-5.42,5.08-5.35,15.29.26,30.59,0,45.89.13,19.7.17,34.39,14.17,34.56,33.7q.46,51.62,0,103.23c-.16,19.62-15.13,34.07-34.73,34.21-15.44.11-30.89-.08-46.33.1-3.57,0-4.49-1.12-4.48-4.56C669.43,788.7,669.38,761.64,669.38,734.59Z"/><path class="cls-8" d="M1120.77,734.57c0-17.5-.48-35,.12-52.48.65-18.75,13.38-31.46,32.1-32.8a152.67,152.67,0,0,1,22,.06c17.57,1.3,31.21,15.16,31.39,32.7q.54,52.49,0,105c-.23,18.6-15.32,32.91-34,33.13-8.48.1-17,1-25.47-1.06-14.91-3.65-25.53-15.78-26-31.17-.48-17.77-.11-35.57-.11-53.35Z"/><path class="cls-9" d="M778.45,734.51c0-26.92.06-53.84-.07-80.76,0-3.57.82-4.81,4.61-4.78,21.4.13,65.18,0,78.61,0a4,4,0,0,1,4,4v9.47a4,4,0,0,1-4,4c-11.48,0-44.86.15-61,0-3.89,0-5.31,1-5.34,4.27,0,4.14,0,28,.08,40,.06,5.91.81,6.9,5.18,6.83,10.67-.16,32-.16,40.83-.16a4,4,0,0,1,4,4l-.06,9.65a4,4,0,0,1-4,4c-8.87,0-30.43,0-41.58-.19-3.61,0-4.45,1.12-4.43,4.54q.22,29.36,0,58.69c0,3.57.84,4.82,4.64,4.78,16.1-.16,48.5-.17,59.84-.17a4,4,0,0,1,4,4l-.1,9.64a4,4,0,0,1-4,4c-13.38,0-57.12-.06-76.06.09-4,0-5.26-.89-5.23-5.07C778.55,788.35,778.45,761.43,778.45,734.51Z"/><path class="cls-8" d="M1069.28,648.69c6,0,18.62.07,25.07.11a4,4,0,0,1,4,4l0,9.61a4,4,0,0,1-4,4c-10.21-.06-37.08-.21-47-.18-10.61,0-17.68,7.07-17.75,17.67,0,5.59-.07,11.18,0,16.76.14,9.23,6.3,15.92,15.56,16.49,6.15.37,12.34.21,18.52.23,18.88,0,33.67,14.3,34.1,33.24.28,11.9.31,23.82,0,35.73-.5,19.31-15.31,33.69-34.67,33.86-10.66.1-30.92,0-42.46-.13a8.69,8.69,0,0,1-8.61-8.69h0a8.68,8.68,0,0,1,8.67-8.68l40.95,0c12.19,0,18.91-6.71,18.92-18.75,0-10.88,0-21.76,0-32.64a17.39,17.39,0,0,0-16.83-17c-5.88-.11-11.77,0-17.65,0-19.31-.26-33.86-15-33.87-34.4,0-6,0-12.05,0-18.08a33.4,33.4,0,0,1,32.83-33C1053.08,648.63,1061.18,648.7,1069.28,648.69Z"/><path class="cls-8" d="M1229.33,734.42c0-26.91.06-53.83-.08-80.75,0-3.67,1-4.72,4.69-4.7,21.45.13,64,0,77.15,0a4,4,0,0,1,4,4v9.6a4,4,0,0,1-4,4c-11.16,0-42.92,0-59-.17-4.18,0-5.55,1-5.47,5.35.27,13.82,0,45.55,0,45.55h43.12a4,4,0,0,1,4,4v9.35a4,4,0,0,1-4,4h-43.13l.16,81.33a4,4,0,0,1-4,4h-9.45a4,4,0,0,1-4-4C1229.35,802,1229.33,755.08,1229.33,734.42Z"/><path class="cls-8" d="M1385.1,820.06H1376a4,4,0,0,1-4-4c0-22.06.07-128.45.09-145.57a4,4,0,0,0-4-4h-25.94a4,4,0,0,1-4-4v-9.61a4,4,0,0,1,4-4h77a4,4,0,0,1,4,4v9.61a4,4,0,0,1-4,4H1393a4,4,0,0,0-4,4c0,11.45.07,122.94.08,145.57A4,4,0,0,1,1385.1,820.06Z"/><path class="cls-8" d="M921.43,280.35c-3.15-10.82,2.44-15.62,11.81-19.58,13.09-5.54,25.56-12.57,38.3-19,5.44-2.73,5.44-2.73,5.43,3.56,0,6-.1,12.05,0,18.07.07,2.5-.65,4.06-3,5.22-16.34,8.05-32.67,16.13-48.89,24.43-3.68,1.88-3.84.39-3.73-2.59C921.53,287.12,921.43,283.73,921.43,280.35Z"/><path class="cls-10" d="M1087.21,515.92c0-16.91.07-33.82-.06-50.73,0-3.24.54-4.69,4.29-4.67,25.44.17,50.89,0,76.34.13,18.42.09,29.77,11.76,29.79,30.3q0,25.14,0,50.29c0,18.86-11,29.73-30,29.73-25.16,0-50.31-.08-75.46.08-3.77,0-5.09-.78-5-4.83C1087.35,549.46,1087.21,532.69,1087.21,515.92Z"/><path class="cls-10" d="M1087.21,391.63c0-12.5.08-25-.06-37.51,0-3,.83-4.09,4-4.07,17.21.14,34.43,0,51.64.11a27.4,27.4,0,0,1,27,27.11c.12,9,0,17.94,0,26.91,0,17-11,28.4-28,28.6s-33.84,0-50.75.11c-3.25,0-3.93-1.28-3.9-4.2C1087.28,416.34,1087.21,404,1087.21,391.63Z"/><path class="cls-10" d="M1308.33,391.23c0-12.19.1-24.39-.06-36.58,0-3.28.58-4.67,4.32-4.62,17.05.2,34.1,0,51.14.12a27.38,27.38,0,0,1,27.18,27.32c.06,9.11,0,18.22,0,27.33-.05,16.33-11.22,27.79-27.64,28-17,.19-34.09,0-51.14.11-3.31,0-3.88-1.31-3.86-4.19C1308.39,416.21,1308.33,403.72,1308.33,391.23Z"/><path class="cls-10" d="M935.58,432.83c-12.5,0-25-.08-37.51.06-3,0-4.11-.81-4.08-4,.13-16.91-.08-33.83.11-50.74s11.55-28,28.55-28.05c8.83,0,17.66-.05,26.48,0a27.27,27.27,0,0,1,27.45,27.47c.07,16.92-.06,33.83.1,50.74,0,3.44-.94,4.61-4.47,4.56C960,432.71,947.79,432.83,935.58,432.83Z"/><path class="cls-10" d="M1819.39,432.83c-12.21,0-24.43-.09-36.64.06-3.27,0-4.73-.63-4.69-4.36.19-17.35,0-34.71.13-52.07a26.37,26.37,0,0,1,25.71-26.26c10.15-.29,20.31-.25,30.46,0,13.5.3,25.39,11.37,26.05,25.25.73,15.41.36,30.88.42,46.32.05,11.07,0,11.07-11,11.07Z"/><path class="cls-11" d="M1715.13,691.48c0-7.06.1-14.11,0-21.16-.07-2.91.63-4.23,3.9-4.17,10.13.18,20.28,0,30.41.1,8.22.08,16.09,7,16.68,15.29a135.39,135.39,0,0,1,0,20.24c-.75,9.62-8.45,15.5-18.11,15.17s-19.1-.23-28.65-.05c-3.32.06-4.36-1-4.26-4.27C1715.28,705.59,1715.14,698.53,1715.13,691.48Z"/><path class="cls-11" d="M1632.18,717.39c-7.35,0-14.71-.11-22.06.05-2.93.07-3.8-1-3.76-3.83.13-10.29,0-20.59.08-30.88a16.65,16.65,0,0,1,15.77-16.45c6.47-.24,13-.22,19.41,0,7.81.27,15.5,7.6,15.83,15.75.45,10.86.14,21.75.23,32.63,0,2.58-1.47,2.77-3.44,2.76C1646.89,717.36,1639.53,717.39,1632.18,717.39Z"/><path class="cls-10" d="M686.6,734.48c0-21,.13-42-.1-63.05,0-4.38,1.34-5.43,5.49-5.3,9.55.29,19.11,0,28.67.11a17.48,17.48,0,0,1,17.17,17.1q.06,51.15,0,102.3a16.62,16.62,0,0,1-16.26,16.93c-10.57.32-21.17,0-31.75.16-3.48.06-3.23-2-3.23-4.32Q686.62,766.45,686.6,734.48Z"/><path class="cls-10" d="M1189.29,734.69c0,16.75,0,33.5,0,50.25,0,10.27-7,17.47-17.32,17.71-5.44.13-10.88.14-16.32,0-10.55-.27-16.52-6-17.47-16.53-.12-1.31-.15-2.64-.15-4q0-47.82,0-95.66c0-5.88.73-11.42,5.56-15.62a17,17,0,0,1,11.55-4.67c5.44,0,10.88,0,16.32,0A17.49,17.49,0,0,1,1189.29,684Q1189.32,709.34,1189.29,734.69Z"/><path class="cls-1" d="M39.33,448.42c0-32.19,0-64.38-.07-96.56,0-2.5.67-3.44,3.09-3.94,6.13-1.27,6.11-1.4,9.45,4q61.77,99.51,123.58,199c1.25,2,1.47,3.17-.55,4.94a23.94,23.94,0,0,0-7.66,13.88c-.36,2-1,2.73-3.22,2.72q-49.06-.1-98.14,0c-1.7,0-2.51-.28-2.94-2.22-2.54-11.49-9.54-18.81-21.11-21.38-2.52-.56-2.45-1.94-2.44-3.81Q39.35,496.71,39.33,448.42Z"/><path class="cls-1" d="M39.34,701.36q0-48-.05-96c0-2.5.51-3.59,3.18-4.22,10.85-2.6,17.6-9.56,20.21-20.37.52-2.12,1.2-2.87,3.49-2.86q48.77.13,97.53,0c2.2,0,3.14.55,3.55,2.79a23.88,23.88,0,0,0,8,14c1.65,1.43,1.34,2.38.38,3.92q-18,28.74-35.8,57.53Q95.07,728.31,50.33,800.4c-1.45,2.34-2.51,3.48-5.59,2.24-5.28-2.13-5.4-1.85-5.4-7.54Z"/><path class="cls-2" d="M190.78,448.38c0,32,0,64,.06,96,0,2.75-.46,4-3.51,4.53-5.72.92-5.64,1.15-8.65-3.71q-26.58-42.9-53.19-85.77-35.37-57-70.8-113.93c-1.2-1.91-1.12-2.95.55-4.44a22.61,22.61,0,0,0,7.51-13.58c.42-2.63,1.89-2.79,4-2.78q31.68.06,63.34,0c11.19,0,22.38.05,33.57,0,2.19,0,3.2.4,3.79,2.89,2.59,10.92,9.42,18,20.45,20.48,2.38.54,3,1.48,2.94,3.76Q190.72,400.08,190.78,448.38Z"/><path class="cls-3" d="M190.78,701.76q0,48.13,0,96.25c0,2.34-.39,3.3-3,3.92-10.81,2.5-17.74,9.34-20.43,20.15-.59,2.37-1.4,3.15-3.91,3.14q-48.43-.15-96.88,0c-2.43,0-3.5-.53-4-3a23.61,23.61,0,0,0-7.68-13.52c-1.67-1.49-1.48-2.51-.43-4.19q42.44-68.12,84.76-136.29,20.55-33.06,41.06-66.16c1.22-2,2.27-2.75,4.43-1.54,1.82,1,4.83.23,5.72,2s.34,4.32.34,6.52q0,46.39,0,92.77Z"/><path class="cls-2" d="M269.19,510.79q0-49.07-.05-98.14c0-2.4.5-3.45,3.09-4a24.3,24.3,0,0,0,16.31-11c1.26-2,2.36-2.14,4.33-1.34q46.31,18.78,92.64,37.43c1.77.71,2.39,1.6,2.06,3.56-1.5,8.88.71,16.76,6.88,23.36,1.3,1.4.87,2.12-.05,3.39q-29.07,40.08-58,80.21Q311,579.4,285.64,614.56c-1.68,2.34-2.94,3-5.43,1.25a16.74,16.74,0,0,0-7.94-3c-2.63-.26-3.14-1.46-3.13-3.89Q269.25,559.86,269.19,510.79Z"/><path class="cls-3" d="M434.75,825.15c-22.48,0-45,0-67.44.07-2.5,0-3.42-.71-3.92-3.13A24.47,24.47,0,0,0,353.74,807c-1.55-1.16-1.81-2.14-1.13-4q25.22-67.11,50.27-134.26c.62-1.64,1.27-2.37,3.18-2a17.2,17.2,0,0,0,8.74-.78c2.28-.74,3.32,0,4.55,1.82q31.88,46.85,63.86,93.62,14.91,21.83,29.87,43.62c1.3,1.88,1.44,3-.36,4.74a22.93,22.93,0,0,0-6.67,12.69c-.42,2.26-1.38,2.74-3.54,2.74C479.92,825.12,457.34,825.15,434.75,825.15Z"/><path class="cls-1" d="M337.45,643.35c-13.6,0-27.22-.07-40.82.06-2.52,0-3.17-.64-3-3.14a24.08,24.08,0,0,0-4.59-16.1c-1.35-1.85-1.06-3,.16-4.65q32.06-44.17,64-88.44Q376,499.55,398.83,468c1.31-1.83,2.4-2.74,4.52-1.28a9.63,9.63,0,0,0,2.66,1c4.56,1.44,4.48,1.43,4.33,6.33-.59,19.81-1.09,39.62-1.68,59.43-.77,25.7-1.62,51.41-2.34,77.11-.06,2-.76,2.67-2.67,3a26.2,26.2,0,0,0-22.13,26.13c0,3.2-.94,3.74-3.87,3.71C364.25,643.26,350.85,643.35,337.45,643.35Z"/><path class="cls-3" d="M265.37,825.15c-13.93,0-27.85-.06-41.78.06-2.41,0-3.49-.52-4-3.05a25,25,0,0,0-11.37-16.46c-1.7-1.11-1.91-2-1.19-3.79Q233.93,735,260.68,668c.72-1.82,1.67-2.51,3.52-2.1a3.66,3.66,0,0,0,1.56.15c4.62-1.2,6.13,1.39,7.68,5.26q26.12,64.86,52.6,129.58c.76,1.87.47,2.62-1.33,3.56a25.29,25.29,0,0,0-13.55,17.74c-.54,2.51-1.6,3.06-4,3C293.23,825.09,279.3,825.15,265.37,825.15Z"/><path class="cls-3" d="M337.56,649.21c14.15,0,28.29,0,42.43,0,2,0,3.16.43,4.08,2.46a24.19,24.19,0,0,0,11.64,12.06c2.2,1.06,2.24,2.07,1.47,4.12Q372.29,734,347.57,800.28c-.76,2-1.57,2.51-3.64,1.87a17.66,17.66,0,0,0-9.05-.78c-2.15.48-2.7-.5-3.36-2.14q-9.18-22.76-18.46-45.46-17.56-43.24-35.2-86.47c-1-2.37-.74-3.37,1.62-4.49a23.15,23.15,0,0,0,11-11c1.09-2.24,2.43-2.66,4.66-2.65C309.28,649.26,323.42,649.21,337.56,649.21Z"/><path class="cls-4" d="M529.4,734.06c0,21.32,0,42.65.05,64,0,2.44-.51,3.78-3.15,3.87a6.53,6.53,0,0,0-3,.91c-2.87,1.71-4.36.76-6.18-1.93q-46-67.71-92.2-135.24c-1.51-2.2-1.87-3.44.68-5.17a20.24,20.24,0,0,0,6.92-8.9A3.28,3.28,0,0,1,436,649.2q34.2.09,68.4,0a3.38,3.38,0,0,1,3.58,2.28,25.69,25.69,0,0,0,18.64,14.76c2.32.49,2.8,1.4,2.79,3.53C529.37,691.2,529.4,712.63,529.4,734.06Z"/><path class="cls-4" d="M196.7,701.32q0-48.12,0-96.25c0-2.48.65-3.53,3.17-3.91a20.11,20.11,0,0,0,8.89-3.94c1.45-1.08,2.36-1.11,3.73.24q14.13,14.07,28.45,27.95a3.24,3.24,0,0,1,.9,4.07c-4.84,13.26,0,26.35,12.29,33.36,1.71,1,1.82,1.75,1.14,3.44q-26.72,66.51-53.32,133.08c-.65,1.62-1,3-3.48,2.42s-2-2.08-2-3.57q0-48.45,0-96.89Z"/><path class="cls-5" d="M114.79,143.05a9.43,9.43,0,0,1-3.14,7q-16.17,16.28-32.28,32.6c-6.15,6.21-6.19,13,0,19.1,10.83,10.79,21.72,21.54,32.52,32.36,4.47,4.47,3.79,10.86-1.38,13.62a8.07,8.07,0,0,1-9.2-.83,31.83,31.83,0,0,1-3.23-3Q76,221.83,54,199.77c-5.28-5.28-5.32-9.54-.1-15Q76.91,160.88,100,137c2.58-2.67,5.53-3.77,9.15-2.34A9.27,9.27,0,0,1,114.79,143.05Z"/><path class="cls-6" d="M124.44,186.29a7.18,7.18,0,0,1,5.39,2.38q23.78,24.54,47.55,49.09c4,4.1,3.71,9.09-.41,13.22q-23.26,23.31-46.56,46.56c-3.83,3.82-9,4.17-12.43.94-3.68-3.48-3.67-8.48.44-12.61,8.4-8.46,17-16.75,25.45-25.11,2.26-2.23,4.49-4.48,6.72-6.72,6.5-6.51,6.53-13.14.11-19.61l-32.31-32.6c-3-3-3.93-6.41-2.21-10.39A8.41,8.41,0,0,1,124.44,186.29Z"/><path class="cls-7" d="M193.52,807.07A21.06,21.06,0,1,1,172.41,828,21.42,21.42,0,0,1,193.52,807.07Z"/><path class="cls-7" d="M337.14,807.07a21.06,21.06,0,1,1-20.94,21.11A21.38,21.38,0,0,1,337.14,807.07Z"/><path class="cls-7" d="M266.3,361.44c11.4,0,21.16,9.7,21.08,20.93a21.59,21.59,0,0,1-20.94,21.19c-11.33.14-21.28-9.81-21.18-21.21A21.12,21.12,0,0,1,266.3,361.44Z"/><path class="cls-7" d="M408.15,618.94a21.06,21.06,0,1,1,0,42.11,21.06,21.06,0,0,1,0-42.11Z"/><path class="cls-7" d="M57.58,321.7a21.5,21.5,0,0,1-21,21.12,21.48,21.48,0,0,1-21.24-21.16c.05-11.28,9.67-20.85,21.13-21C47.59,300.48,57.54,310.42,57.58,321.7Z"/><path class="cls-7" d="M214.54,575.13A21.07,21.07,0,1,1,193.61,554,21.39,21.39,0,0,1,214.54,575.13Z"/><path class="cls-7" d="M36.21,807.08c11.15-.3,21.08,9.32,21.36,20.69s-9.17,21-20.66,21.4c-11.29.38-21.32-9.33-21.54-20.85C15.15,817.14,24.72,807.39,36.21,807.08Z"/><path class="cls-7" d="M214.82,321.72a21,21,0,1,1-21-21.07C205,300.64,214.82,310.47,214.82,321.72Z"/><path class="cls-7" d="M57.58,575.16a21.4,21.4,0,0,1-21.41,21,21.52,21.52,0,0,1-20.79-21c-.1-11.34,9.93-21.31,21.27-21.15S57.65,563.86,57.58,575.16Z"/><path class="cls-7" d="M553.29,827.67c.42,11.19-9.08,21.16-20.5,21.51-11.27.34-21.13-9-21.6-20.44-.46-11.17,9.08-21.31,20.38-21.66A21.29,21.29,0,0,1,553.29,827.67Z"/><path class="cls-7" d="M393.12,442.17A21.1,21.1,0,0,1,414.2,421a21.07,21.07,0,0,1-.12,42.13A21,21,0,0,1,393.12,442.17Z"/><path class="cls-7" d="M553.3,639.57c.39,11.17-9.16,21.15-20.55,21.47s-21.13-9-21.56-20.49c-.43-11.19,9-21.2,20.42-21.6S552.89,627.87,553.3,639.57Z"/><path class="cls-7" d="M266.61,618.26a21,21,0,1,1,.25,42,21.4,21.4,0,0,1-21.1-20.93A21.11,21.11,0,0,1,266.61,618.26Z"/></g></svg>